# xmcd
#
# Track frame offsets:
#	150
#	14965
#	34200
#	48955
#	67850
#	80292
#	96928
#	112471
#	125030
#	160279
#	172160
#	189261
#	204695
#	217496
#	236558
#	255190
#	274334
#	288234
#
# Disc length: 4023 seconds
#
# Revision: 2
# Processed by: cddbd v1.5.2PL0 Copyright (c) Steve Scherf et al.
# Submitted via: EasyCDDAExtractor 11.1.0.1
#
DISCID=180fb512
DTITLE=Lotte Riisholt and Jensen and Co. - En Aften Live Med
DYEAR=2007
DGENRE=Country
TTITLE0=Rosegarden
TTITLE1=Vil du danse med mig
TTITLE2=Sånt är livet
TTITLE3=What a wonderful world
TTITLE4=9 to 5
TTITLE5=Susanne, Birgitte og Hanne
TTITLE6=What a difference
TTITLE7=Vem vet
TTITLE8=Jensen medley
TTITLE9=It's my party
TTITLE10=Have I told you lately
TTITLE11=Quando quando
TTITLE12=My first my last my everything
TTITLE13=Crazy
TTITLE14=Jambalaya
TTITLE15=To lys på et bord
TTITLE16=Oh lonesome me
TTITLE17=Den knaldrøde gummibåd
EXTD=Live CD optaget foran et levende publikum hos Reca i Grevinge den 20. maj
EXTD=2007
EXTT0=
EXTT1=
EXTT2=
EXTT3=
EXTT4=
EXTT5=
EXTT6=
EXTT7=
EXTT8=
EXTT9=
EXTT10=
EXTT11=
EXTT12=
EXTT13=
EXTT14=
EXTT15=
EXTT16=
EXTT17=
PLAYORDER=
